<?xml version="1.0" encoding="utf-8"?>
<!-- Generator: Adobe Illustrator 23.1.1, SVG Export Plug-In . SVG Version: 6.00 Build 0)  -->
<svg version="1.1" id="Layer_1" xmlns="http://www.w3.org/2000/svg" xmlns:xlink="http://www.w3.org/1999/xlink" x="0px" y="0px"
	 viewBox="0 0 1500 2250" style="enable-background:new 0 0 1500 2250;" xml:space="preserve">
<style type="text/css">
	.st0{fill-rule:evenodd;clip-rule:evenodd;fill:none;}
</style>
<path class="st0" d="M830,535c0.4,6.6,3.1,10.1,5,15c0,1.3,1,2.7,1,4c0.3,0,0.7,1,1,1c0,1,0,1,0,2c0.3,0,0.7,1,1,1c0,1.3,0,1.7,0,3
	c0.3,0-0.3,1,0,1c0,1.7,1,2.3,1,4c0.3,0-0.3,1,0,1c0,2.7,0,3.3,0,6c-0.3,0,0.3,1,0,1c-0.3,4.7-1.7,7.3-2,12c-0.3,0,0.3,2,0,2
	c-1.7,5.3-4.3,9.7-6,15c-4-1.3-7-1.7-11-3c0-0.3,0-0.7,0-1c-0.7,0-1.3,0-2,0c0-0.3,0-0.7,0-1c-0.7,0-1.3,0-2,0c0-0.3,0-0.7,0-1
	c-0.7,0-1.3,0-2,0c0-0.3,0-0.7,0-1c-0.7,0-1.3,0-2,0c0-0.3,0-0.7,0-1c-0.7,0-1.3-1-2-1l-2-1c-0.7,0-1.3-1-2-1c-0.3-0.7-0.7-0.3-1-1
	c-0.7,0-1.3-1-2-1c-0.7-1-1.3-1-2-2c-4.2-3-7.8-5.8-11-10c-1.7,0.2-2,0-2,0c-6.1,0.9-13.7,0.8-17,0c-0.3,1-0.7,2-1,3
	c-0.7,0-1.3,1-2,1c-2,2.3-4,4.7-6,7c-0.7,0-1.3,0-2,0c-0.7,1-1.3,1-2,2c-0.7,0-1.3,1-2,1c-0.7,1-1.3,1-2,2c-0.7,0-1.3,1-2,1
	c-0.3,0.7-1.7,0.3-2,1c-2,0.7-3,1.3-5,2c0,0.3,0,0.7,0,1c-0.7,0-1.3,0-2,0c0,0.3,0,1.7,0,2c-1,0-2,0-3,0c0,0.3,0,0.7,0,1
	c-1.7,0.3-3.3,0.7-5,1c0,0.3,0,0.7,0,1c-1.3,0.3-2.7,0.7-4,1c0,0.3,0,0.7,0,1c-0.3,0-0.7,0-1,0c0-0.3,0-0.7,0-1c-2.4-3-3.2-5.8-5-10
	c-0.3,0-0.7,0-1,0c0-0.7,0-1.3,0-2c-0.3,0-0.7,0-1,0c0-1,1-2,1-3c-3.3-8.5-4.6-19.4-3-29c0-1.7,1-3.3,1-5c1.8-5.3,4.7-16.9,5-17
	c0.3-0.1,7.6,1.7,11,3c2.3,0.3,4.7,0.7,7,1c0,0.3,0,0.7,0,1c1.3,0.3,2.7,0.7,4,1c0,0.3,0,0.7,0,1c0.7,0,1.3,0,2,0
	c0.3,0.7,0.7,1.3,1,2c1.3,0.3,2.7,0.7,4,1c0.3,0.7,0.7,1.3,1,2c0.7,0,1.3,0,2,0c0.7,1,1.3,2,2,3c0.7,0,1.3,0,2,0
	c0.3,0.7,0.7,1.3,1,2c2,1.7,4,3.3,6,5c6.1-1.1,9.4-1,16-1c0-0.3,1-1.7,1-2c0.7,0,1.3,0,2,0c0.3-0.7,0.7-0.3,1-1c0.7,0,1.3-1,2-1
	c0.3-0.7,0.7-0.3,1-1c0.7,0,1.3-1,2-1c0.3-0.7,0.7-0.3,1-1c0.7,0,1.3-1,2-1c0.7-1,1.3-1,2-2c0.7,0,1.3-1,2-1c1.7-2,3.3-4,5-6
	c0.7,0,1.3,0,2,0c0-0.3,0-0.7,0-1c0.7,0,1.3,0,2,0c0-0.3,0-0.7,0-1c1,0,2,0,3,0C818.8,538.9,823.8,535.7,830,535z"/>
</svg>
