<?xml version="1.0" encoding="iso-8859-1"?>
<!-- Generator: Adobe Illustrator 19.1.0, SVG Export Plug-In . SVG Version: 6.00 Build 0)  -->
<svg version="1.1" id="Layer_2" xmlns="http://www.w3.org/2000/svg" xmlns:xlink="http://www.w3.org/1999/xlink" x="0px" y="0px"
	 viewBox="0 0 1500 2250" enable-background="new 0 0 1500 2250" xml:space="preserve">
<path fill="#FF0000" d="M817.667,929.333L816.333,852L815,715.333l-3-53.667L810.667,653L810,644l-1.06-14.308
	c-0.18-2.436-0.855-4.81-1.982-6.977l-2.625-5.049l-2.053-2.493c-1.7-2.064-2.709-4.609-2.887-7.276L799,602l-0.333-2.667l1-3
	l13.539-14.67c0.917-0.956,0.826-2.49-0.197-3.332l-10.042-8.449c-1.694-1.425-3.861-2.163-6.073-2.069l-8.228,0.353l-10.167,2
	l-5,2.333l-7.896,7.208l-3.32,4.605c-0.86,1.402-0.647,3.21,0.516,4.373l12.948,12.444c0.785,0.755,1.157,1.842,0.998,2.92
	l-0.414,2.804L771,620.833l-4.333,9.5l-2.167,7.5l-1,6.333l-0.382,1.996c-1.146,5.99-1.743,12.072-1.785,18.17l0,0l-2.353,56.993
	l-3.333,94.667L753.5,930.667l-2.25,53.624l17.917,18.917l15.395,13.285c0.577,0.498,1.44,0.47,1.984-0.066l34.101-33.636"/>
</svg>
