<?xml version="1.0" encoding="utf-8"?>
<!-- Generator: Adobe Illustrator 24.0.1, SVG Export Plug-In . SVG Version: 6.00 Build 0)  -->
<svg version="1.1" id="Layer_1" xmlns="http://www.w3.org/2000/svg" xmlns:xlink="http://www.w3.org/1999/xlink" x="0px" y="0px"
	 viewBox="0 0 1500 2250" style="enable-background:new 0 0 1500 2250;" xml:space="preserve">
<style type="text/css">
	.st0{fill-rule:evenodd;clip-rule:evenodd;fill:none;}
</style>
<path class="st0" d="M757.79,578.75c0,0,3.35-2.82,6.24-6.17c2.89-3.35,8.07-11.12,8.07-11.12l11.27-0.3c0,0,5.48,7.46,14.32,15.84
	l-4.19,5.25l-5.33,7.16l-0.38,2.51c0,0,1.52,1.9,1.83,7.77s7.31,16.45,7.31,16.45s0.99,1.75,1.29,4.42
	c0.3,2.67,2.67,12.18,3.05,23.3c0.38,11.12,1.07,22.77,1.9,42.27c0.84,19.5,1.52,37.39,1.45,51.33
	c-0.08,13.94,0.53,65.87,0.53,65.87l0.46,42.8l1.68,58.71c0,0-0.15,15.46-1.22,23.99c-1.07,8.53-0.61,18.96-0.61,18.96
	s2.51,20.18,5.18,23.61l-31.45,32.29c0,0-1.52,1.9-3.88-0.3c-2.36-2.21-29.85-29.78-29.85-29.78l-0.91-5.18l1.6-50.11l1.37-58.71
	l1.14-56.28l1.35-39.14l1.62-38.46l1.14-50.26l1.07-15.08l0.84-21.02c0,0,0.84-13.48,5.64-23.23c4.8-9.75,9.21-19.57,9.21-19.57
	s1.07-4.34-0.53-6.32C767.38,588.27,757.79,578.75,757.79,578.75z"/>
</svg>
